<mxfile host="app.diagrams.net" modified="2024-04-11T08:42:05.333Z" agent="Mozilla/5.0 (Windows NT 10.0; Win64; x64) AppleWebKit/537.36 (KHTML, like Gecko) Chrome/123.0.0.0 Safari/537.36" etag="0H5qJVi59KLfEcom8xtj" version="24.2.3" type="github">
  <diagram name="第 1 页" id="IuVBY7zCxeRyTuslbeWJ">
    <mxGraphModel dx="780" dy="1581" grid="1" gridSize="10" guides="1" tooltips="1" connect="1" arrows="1" fold="1" page="1" pageScale="1" pageWidth="827" pageHeight="1169" math="0" shadow="0">
      <root>
        <mxCell id="0" />
        <mxCell id="1" parent="0" />
        <mxCell id="HFi6LKzckSWgGvqBd1pe-1" value="" style="group" vertex="1" connectable="0" parent="1">
          <mxGeometry x="410" y="-220" width="600" height="310" as="geometry" />
        </mxCell>
        <mxCell id="HFi6LKzckSWgGvqBd1pe-2" value="" style="rounded=1;whiteSpace=wrap;html=1;fillColor=#dfebfb;fontColor=#ffffff;strokeColor=#000000;" vertex="1" parent="HFi6LKzckSWgGvqBd1pe-1">
          <mxGeometry x="-20" width="620" height="310" as="geometry" />
        </mxCell>
        <mxCell id="HFi6LKzckSWgGvqBd1pe-3" value="" style="group" vertex="1" connectable="0" parent="HFi6LKzckSWgGvqBd1pe-1">
          <mxGeometry x="10" y="65.75757575757576" width="557.5" height="204.94757575757583" as="geometry" />
        </mxCell>
        <mxCell id="HFi6LKzckSWgGvqBd1pe-4" value="" style="rounded=1;whiteSpace=wrap;html=1;dashed=1;" vertex="1" parent="HFi6LKzckSWgGvqBd1pe-3">
          <mxGeometry x="243.5" y="37.57575757575758" width="310" height="46.96969696969697" as="geometry" />
        </mxCell>
        <mxCell id="HFi6LKzckSWgGvqBd1pe-5" value="" style="rounded=1;whiteSpace=wrap;html=1;dashed=1;" vertex="1" parent="HFi6LKzckSWgGvqBd1pe-3">
          <mxGeometry x="247.5" y="93.93939393939394" width="310" height="46.96969696969697" as="geometry" />
        </mxCell>
        <mxCell id="HFi6LKzckSWgGvqBd1pe-6" value="" style="rounded=1;whiteSpace=wrap;html=1;strokeWidth=5;strokeColor=#008a00;" vertex="1" parent="HFi6LKzckSWgGvqBd1pe-3">
          <mxGeometry x="257.5" y="46.96969696969697" width="50" height="28.181818181818183" as="geometry" />
        </mxCell>
        <mxCell id="HFi6LKzckSWgGvqBd1pe-7" value="" style="rounded=1;whiteSpace=wrap;html=1;strokeWidth=5;strokeColor=#008a00;" vertex="1" parent="HFi6LKzckSWgGvqBd1pe-3">
          <mxGeometry x="457.50000000000006" y="46.96969696969697" width="50" height="28.181818181818183" as="geometry" />
        </mxCell>
        <mxCell id="HFi6LKzckSWgGvqBd1pe-8" value="" style="group" vertex="1" connectable="0" parent="HFi6LKzckSWgGvqBd1pe-3">
          <mxGeometry x="30" y="75.15151515151516" width="160" height="120" as="geometry" />
        </mxCell>
        <mxCell id="HFi6LKzckSWgGvqBd1pe-53" value="" style="ellipse;whiteSpace=wrap;html=1;fillColor=#fff2cc;strokeColor=#d6b656;dashed=1;" vertex="1" parent="HFi6LKzckSWgGvqBd1pe-8">
          <mxGeometry x="-40" y="-50" width="140" height="170" as="geometry" />
        </mxCell>
        <mxCell id="HFi6LKzckSWgGvqBd1pe-9" value="Router" style="rounded=1;whiteSpace=wrap;html=1;" vertex="1" parent="HFi6LKzckSWgGvqBd1pe-8">
          <mxGeometry x="120" y="23.484848484848484" width="45" height="28.18181818181818" as="geometry" />
        </mxCell>
        <mxCell id="HFi6LKzckSWgGvqBd1pe-10" value="" style="endArrow=classic;html=1;rounded=0;entryX=0;entryY=0.5;entryDx=0;entryDy=0;exitX=0.5;exitY=0;exitDx=0;exitDy=0;fillColor=#a20025;strokeColor=#6F0000;" edge="1" parent="HFi6LKzckSWgGvqBd1pe-8" source="HFi6LKzckSWgGvqBd1pe-13" target="HFi6LKzckSWgGvqBd1pe-9">
          <mxGeometry width="50" height="50" relative="1" as="geometry">
            <mxPoint x="175" y="46.96969696969697" as="sourcePoint" />
            <mxPoint x="240" y="111.78787878787878" as="targetPoint" />
          </mxGeometry>
        </mxCell>
        <mxCell id="HFi6LKzckSWgGvqBd1pe-11" value="" style="ellipse;whiteSpace=wrap;html=1;aspect=fixed;fillColor=#008a00;strokeColor=#005700;fontColor=#ffffff;" vertex="1" parent="HFi6LKzckSWgGvqBd1pe-8">
          <mxGeometry x="30" y="32.878787878787875" width="17.142857142857142" height="17.142857142857142" as="geometry" />
        </mxCell>
        <mxCell id="HFi6LKzckSWgGvqBd1pe-12" value="" style="ellipse;whiteSpace=wrap;html=1;aspect=fixed;fillColor=#e51400;strokeColor=#B20000;fontColor=#ffffff;" vertex="1" parent="HFi6LKzckSWgGvqBd1pe-8">
          <mxGeometry y="51.666666666666664" width="17.142857142857142" height="17.142857142857142" as="geometry" />
        </mxCell>
        <mxCell id="HFi6LKzckSWgGvqBd1pe-13" value="" style="ellipse;whiteSpace=wrap;html=1;aspect=fixed;fillColor=#a20025;strokeColor=#6F0000;fontColor=#ffffff;direction=south;rotation=-5;" vertex="1" parent="HFi6LKzckSWgGvqBd1pe-8">
          <mxGeometry x="62.5" y="65.75757575757575" width="17.142857142857142" height="17.142857142857142" as="geometry" />
        </mxCell>
        <mxCell id="HFi6LKzckSWgGvqBd1pe-14" value="" style="ellipse;whiteSpace=wrap;html=1;aspect=fixed;fillColor=#fa6800;strokeColor=#C73500;fontColor=#000000;" vertex="1" parent="HFi6LKzckSWgGvqBd1pe-8">
          <mxGeometry x="30" y="59.88636363636363" width="17.142857142857142" height="17.142857142857142" as="geometry" />
        </mxCell>
        <mxCell id="HFi6LKzckSWgGvqBd1pe-15" value="" style="ellipse;whiteSpace=wrap;html=1;aspect=fixed;fillColor=#0050ef;strokeColor=#001DBC;fontColor=#ffffff;" vertex="1" parent="HFi6LKzckSWgGvqBd1pe-8">
          <mxGeometry x="62.5" y="28.18181818181818" width="17.142857142857142" height="17.142857142857142" as="geometry" />
        </mxCell>
        <mxCell id="HFi6LKzckSWgGvqBd1pe-16" value="" style="ellipse;whiteSpace=wrap;html=1;aspect=fixed;fillColor=#008a00;strokeColor=#005700;fontColor=#ffffff;" vertex="1" parent="HFi6LKzckSWgGvqBd1pe-8">
          <mxGeometry x="62.5" y="-18.787878787878785" width="17.142857142857142" height="17.142857142857142" as="geometry" />
        </mxCell>
        <mxCell id="HFi6LKzckSWgGvqBd1pe-17" value="" style="endArrow=classic;html=1;rounded=0;entryX=0;entryY=0.5;entryDx=0;entryDy=0;exitX=1;exitY=0.5;exitDx=0;exitDy=0;fillColor=#008a00;strokeColor=#005700;" edge="1" parent="HFi6LKzckSWgGvqBd1pe-8" source="HFi6LKzckSWgGvqBd1pe-16" target="HFi6LKzckSWgGvqBd1pe-9">
          <mxGeometry width="50" height="50" relative="1" as="geometry">
            <mxPoint x="175" y="46.96969696969697" as="sourcePoint" />
            <mxPoint x="236" y="-4.696969696969696" as="targetPoint" />
          </mxGeometry>
        </mxCell>
        <mxCell id="HFi6LKzckSWgGvqBd1pe-18" value="" style="endArrow=classic;html=1;rounded=0;entryX=0;entryY=0.5;entryDx=0;entryDy=0;fillColor=#0050ef;strokeColor=#001DBC;exitX=1;exitY=0.5;exitDx=0;exitDy=0;" edge="1" parent="HFi6LKzckSWgGvqBd1pe-8" source="HFi6LKzckSWgGvqBd1pe-15" target="HFi6LKzckSWgGvqBd1pe-9">
          <mxGeometry width="50" height="50" relative="1" as="geometry">
            <mxPoint x="100" y="37.57575757575757" as="sourcePoint" />
            <mxPoint x="30" y="-18.787878787878785" as="targetPoint" />
          </mxGeometry>
        </mxCell>
        <mxCell id="HFi6LKzckSWgGvqBd1pe-19" value="" style="rounded=0;whiteSpace=wrap;html=1;fillColor=#7a797c;strokeColor=#79777e;fontColor=#ffffff;" vertex="1" parent="HFi6LKzckSWgGvqBd1pe-3">
          <mxGeometry x="367.5" y="46.96969696969697" width="30" height="28.181818181818183" as="geometry" />
        </mxCell>
        <mxCell id="HFi6LKzckSWgGvqBd1pe-20" value="" style="group" vertex="1" connectable="0" parent="HFi6LKzckSWgGvqBd1pe-3">
          <mxGeometry x="257.5" y="103.33333333333334" width="256.5" height="34.128181818181815" as="geometry" />
        </mxCell>
        <mxCell id="HFi6LKzckSWgGvqBd1pe-21" value="" style="rounded=1;whiteSpace=wrap;html=1;fillColor=#FFFFFF;fontColor=#ffffff;strokeColor=#0050ef;strokeWidth=5;" vertex="1" parent="HFi6LKzckSWgGvqBd1pe-20">
          <mxGeometry x="150" y="-4.696969696969696" width="106.50000000000003" height="37.57575757575757" as="geometry" />
        </mxCell>
        <mxCell id="HFi6LKzckSWgGvqBd1pe-22" value="" style="rounded=0;whiteSpace=wrap;html=1;fillColor=#7a797c;strokeColor=#79777e;fontColor=#ffffff;" vertex="1" parent="HFi6LKzckSWgGvqBd1pe-20">
          <mxGeometry x="10" width="30.000000000000004" height="28.18181818181818" as="geometry" />
        </mxCell>
        <mxCell id="HFi6LKzckSWgGvqBd1pe-23" value="" style="rounded=0;whiteSpace=wrap;html=1;fillColor=#7a797c;strokeColor=#79777e;fontColor=#ffffff;" vertex="1" parent="HFi6LKzckSWgGvqBd1pe-20">
          <mxGeometry x="60.00000000000001" width="30.000000000000004" height="28.18181818181818" as="geometry" />
        </mxCell>
        <mxCell id="HFi6LKzckSWgGvqBd1pe-24" value="" style="rounded=0;whiteSpace=wrap;html=1;fillColor=#7a797c;strokeColor=#79777e;fontColor=#ffffff;" vertex="1" parent="HFi6LKzckSWgGvqBd1pe-20">
          <mxGeometry x="110.00000000000001" width="30.000000000000004" height="28.18181818181818" as="geometry" />
        </mxCell>
        <mxCell id="HFi6LKzckSWgGvqBd1pe-25" value="" style="rounded=0;whiteSpace=wrap;html=1;fillColor=#7a797c;strokeColor=#79777e;fontColor=#ffffff;" vertex="1" parent="HFi6LKzckSWgGvqBd1pe-20">
          <mxGeometry x="210" width="30.000000000000004" height="28.18181818181818" as="geometry" />
        </mxCell>
        <mxCell id="HFi6LKzckSWgGvqBd1pe-26" value="" style="rounded=0;whiteSpace=wrap;html=1;fillColor=#7a797c;strokeColor=#79777e;fontColor=#ffffff;" vertex="1" parent="HFi6LKzckSWgGvqBd1pe-3">
          <mxGeometry x="267.5" y="46.96969696969697" width="30" height="28.181818181818183" as="geometry" />
        </mxCell>
        <mxCell id="HFi6LKzckSWgGvqBd1pe-27" value="" style="rounded=0;whiteSpace=wrap;html=1;fillColor=#7a797c;strokeColor=#79777e;fontColor=#ffffff;" vertex="1" parent="HFi6LKzckSWgGvqBd1pe-3">
          <mxGeometry x="317.5" y="46.96969696969697" width="30" height="28.181818181818183" as="geometry" />
        </mxCell>
        <mxCell id="HFi6LKzckSWgGvqBd1pe-28" value="" style="rounded=0;whiteSpace=wrap;html=1;fillColor=#7a797c;strokeColor=#79777e;fontColor=#ffffff;" vertex="1" parent="HFi6LKzckSWgGvqBd1pe-3">
          <mxGeometry x="467.5" y="46.96969696969697" width="30" height="28.181818181818183" as="geometry" />
        </mxCell>
        <mxCell id="HFi6LKzckSWgGvqBd1pe-29" value="" style="rounded=0;whiteSpace=wrap;html=1;fillColor=#7a797c;strokeColor=#79777e;fontColor=#ffffff;" vertex="1" parent="HFi6LKzckSWgGvqBd1pe-3">
          <mxGeometry x="417.5" y="46.96969696969697" width="30" height="28.181818181818183" as="geometry" />
        </mxCell>
        <mxCell id="HFi6LKzckSWgGvqBd1pe-30" value="" style="rounded=0;whiteSpace=wrap;html=1;fillColor=#7a797c;strokeColor=#79777e;fontColor=#ffffff;" vertex="1" parent="HFi6LKzckSWgGvqBd1pe-3">
          <mxGeometry x="417.5" y="103.33333333333334" width="30" height="28.181818181818183" as="geometry" />
        </mxCell>
        <mxCell id="HFi6LKzckSWgGvqBd1pe-31" value="" style="rounded=0;whiteSpace=wrap;html=1;fillColor=#7a797c;strokeColor=#79777e;fontColor=#ffffff;" vertex="1" parent="HFi6LKzckSWgGvqBd1pe-3">
          <mxGeometry x="517.5" y="46.96969696969697" width="30" height="28.181818181818183" as="geometry" />
        </mxCell>
        <mxCell id="HFi6LKzckSWgGvqBd1pe-32" value="" style="rounded=0;whiteSpace=wrap;html=1;fillColor=#7a797c;strokeColor=#79777e;fontColor=#ffffff;" vertex="1" parent="HFi6LKzckSWgGvqBd1pe-3">
          <mxGeometry x="517.5" y="103.33333333333334" width="30" height="28.181818181818183" as="geometry" />
        </mxCell>
        <mxCell id="HFi6LKzckSWgGvqBd1pe-33" value="" style="endArrow=classic;html=1;rounded=0;entryX=0;entryY=0.5;entryDx=0;entryDy=0;exitX=1;exitY=0.5;exitDx=0;exitDy=0;fillColor=#008a00;strokeColor=#005700;" edge="1" parent="HFi6LKzckSWgGvqBd1pe-3" source="HFi6LKzckSWgGvqBd1pe-9" target="HFi6LKzckSWgGvqBd1pe-4">
          <mxGeometry width="50" height="50" relative="1" as="geometry">
            <mxPoint x="27.500000000000004" y="263.03030303030306" as="sourcePoint" />
            <mxPoint x="237.5" y="65.75757575757576" as="targetPoint" />
          </mxGeometry>
        </mxCell>
        <mxCell id="HFi6LKzckSWgGvqBd1pe-34" value="" style="group" vertex="1" connectable="0" parent="HFi6LKzckSWgGvqBd1pe-3">
          <mxGeometry x="257.5" y="159.69696969696972" width="300" height="45.25060606060608" as="geometry" />
        </mxCell>
        <mxCell id="HFi6LKzckSWgGvqBd1pe-35" value="" style="rounded=1;whiteSpace=wrap;html=1;dashed=1;" vertex="1" parent="HFi6LKzckSWgGvqBd1pe-34">
          <mxGeometry x="-10" y="-9.393939393939396" width="310" height="54.644545454545465" as="geometry" />
        </mxCell>
        <mxCell id="HFi6LKzckSWgGvqBd1pe-36" value="" style="rounded=1;whiteSpace=wrap;html=1;fillColor=#ffffff;fontColor=#ffffff;strokeColor=#6F0000;strokeWidth=5;" vertex="1" parent="HFi6LKzckSWgGvqBd1pe-34">
          <mxGeometry x="50" width="96.50000000000001" height="37.575757575757585" as="geometry" />
        </mxCell>
        <mxCell id="HFi6LKzckSWgGvqBd1pe-37" value="" style="group" vertex="1" connectable="0" parent="HFi6LKzckSWgGvqBd1pe-34">
          <mxGeometry y="4.696969696969698" width="256.5" height="34.12818181818182" as="geometry" />
        </mxCell>
        <mxCell id="HFi6LKzckSWgGvqBd1pe-38" value="" style="rounded=0;whiteSpace=wrap;html=1;fillColor=#7a797c;strokeColor=#79777e;fontColor=#ffffff;" vertex="1" parent="HFi6LKzckSWgGvqBd1pe-37">
          <mxGeometry x="10" width="30.000000000000004" height="28.181818181818187" as="geometry" />
        </mxCell>
        <mxCell id="HFi6LKzckSWgGvqBd1pe-39" value="" style="rounded=0;whiteSpace=wrap;html=1;fillColor=#7a797c;strokeColor=#79777e;fontColor=#ffffff;" vertex="1" parent="HFi6LKzckSWgGvqBd1pe-37">
          <mxGeometry x="60.00000000000001" width="30.000000000000004" height="28.181818181818187" as="geometry" />
        </mxCell>
        <mxCell id="HFi6LKzckSWgGvqBd1pe-40" value="" style="rounded=0;whiteSpace=wrap;html=1;fillColor=#7a797c;strokeColor=#79777e;fontColor=#ffffff;" vertex="1" parent="HFi6LKzckSWgGvqBd1pe-37">
          <mxGeometry x="110.00000000000001" width="30.000000000000004" height="28.181818181818187" as="geometry" />
        </mxCell>
        <mxCell id="HFi6LKzckSWgGvqBd1pe-41" value="" style="rounded=0;whiteSpace=wrap;html=1;fillColor=#7a797c;strokeColor=#79777e;fontColor=#ffffff;" vertex="1" parent="HFi6LKzckSWgGvqBd1pe-37">
          <mxGeometry x="210" width="30.000000000000004" height="28.181818181818187" as="geometry" />
        </mxCell>
        <mxCell id="HFi6LKzckSWgGvqBd1pe-42" value="" style="rounded=0;whiteSpace=wrap;html=1;fillColor=#7a797c;strokeColor=#79777e;fontColor=#ffffff;" vertex="1" parent="HFi6LKzckSWgGvqBd1pe-34">
          <mxGeometry x="160" y="4.696969696969698" width="30" height="28.181818181818187" as="geometry" />
        </mxCell>
        <mxCell id="HFi6LKzckSWgGvqBd1pe-43" value="" style="rounded=0;whiteSpace=wrap;html=1;fillColor=#7a797c;strokeColor=#79777e;fontColor=#ffffff;" vertex="1" parent="HFi6LKzckSWgGvqBd1pe-34">
          <mxGeometry x="260" y="4.696969696969698" width="30" height="28.181818181818187" as="geometry" />
        </mxCell>
        <mxCell id="HFi6LKzckSWgGvqBd1pe-44" value="" style="endArrow=classic;html=1;rounded=0;entryX=0;entryY=0.5;entryDx=0;entryDy=0;exitX=1;exitY=0.5;exitDx=0;exitDy=0;fillColor=#0050ef;strokeColor=#001DBC;" edge="1" parent="HFi6LKzckSWgGvqBd1pe-3" source="HFi6LKzckSWgGvqBd1pe-9" target="HFi6LKzckSWgGvqBd1pe-5">
          <mxGeometry width="50" height="50" relative="1" as="geometry">
            <mxPoint x="217.50000000000003" y="112.72727272727273" as="sourcePoint" />
            <mxPoint x="257.5" y="70.45454545454545" as="targetPoint" />
          </mxGeometry>
        </mxCell>
        <mxCell id="HFi6LKzckSWgGvqBd1pe-45" value="" style="endArrow=classic;html=1;rounded=0;entryX=0;entryY=0.5;entryDx=0;entryDy=0;exitX=1;exitY=0.5;exitDx=0;exitDy=0;fillColor=#a20025;strokeColor=#6F0000;" edge="1" parent="HFi6LKzckSWgGvqBd1pe-3" source="HFi6LKzckSWgGvqBd1pe-9" target="HFi6LKzckSWgGvqBd1pe-35">
          <mxGeometry width="50" height="50" relative="1" as="geometry">
            <mxPoint x="212.5" y="122.12121212121212" as="sourcePoint" />
            <mxPoint x="257.5" y="126.81818181818183" as="targetPoint" />
          </mxGeometry>
        </mxCell>
        <mxCell id="HFi6LKzckSWgGvqBd1pe-46" value="" style="ellipse;whiteSpace=wrap;html=1;aspect=fixed;fillColor=#0050ef;strokeColor=#001DBC;fontColor=#ffffff;" vertex="1" parent="HFi6LKzckSWgGvqBd1pe-3">
          <mxGeometry x="10" y="56.36363636363637" width="17.142857142857142" height="17.142857142857142" as="geometry" />
        </mxCell>
        <mxCell id="HFi6LKzckSWgGvqBd1pe-47" value="" style="ellipse;whiteSpace=wrap;html=1;aspect=fixed;fillColor=#fff2cc;strokeColor=#d6b656;gradientColor=#ffd966;" vertex="1" parent="HFi6LKzckSWgGvqBd1pe-3">
          <mxGeometry y="108.03030303030303" width="17.142857142857142" height="17.142857142857142" as="geometry" />
        </mxCell>
        <mxCell id="HFi6LKzckSWgGvqBd1pe-48" value="" style="ellipse;whiteSpace=wrap;html=1;aspect=fixed;fillColor=#d80073;strokeColor=#A50040;fontColor=#ffffff;" vertex="1" parent="HFi6LKzckSWgGvqBd1pe-3">
          <mxGeometry x="35" y="70.45454545454545" width="17.142857142857142" height="17.142857142857142" as="geometry" />
        </mxCell>
        <mxCell id="HFi6LKzckSWgGvqBd1pe-49" value="" style="ellipse;whiteSpace=wrap;html=1;aspect=fixed;fillColor=#0050ef;strokeColor=#001DBC;fontColor=#ffffff;" vertex="1" parent="HFi6LKzckSWgGvqBd1pe-3">
          <mxGeometry x="20" y="65.75757575757576" width="17.142857142857142" height="17.142857142857142" as="geometry" />
        </mxCell>
        <mxCell id="HFi6LKzckSWgGvqBd1pe-50" value="&lt;b&gt;Expert pool&lt;/b&gt;" style="text;strokeColor=none;align=center;fillColor=none;html=1;verticalAlign=middle;whiteSpace=wrap;rounded=0;" vertex="1" parent="HFi6LKzckSWgGvqBd1pe-3">
          <mxGeometry x="332.5" width="140" height="28.181818181818183" as="geometry" />
        </mxCell>
        <mxCell id="HFi6LKzckSWgGvqBd1pe-51" value="&lt;b&gt;Sample pool&amp;nbsp;&lt;/b&gt;" style="text;strokeColor=none;align=center;fillColor=none;html=1;verticalAlign=middle;whiteSpace=wrap;rounded=0;" vertex="1" parent="HFi6LKzckSWgGvqBd1pe-3">
          <mxGeometry x="17.5" width="140" height="28.181818181818183" as="geometry" />
        </mxCell>
        <mxCell id="HFi6LKzckSWgGvqBd1pe-52" value="&lt;b&gt;Domain-Expert Dependency&lt;/b&gt;" style="text;strokeColor=none;align=center;fillColor=none;html=1;verticalAlign=middle;whiteSpace=wrap;rounded=0;" vertex="1" parent="HFi6LKzckSWgGvqBd1pe-1">
          <mxGeometry x="111.11111111111111" y="20" width="273.8777777777778" height="30" as="geometry" />
        </mxCell>
      </root>
    </mxGraphModel>
  </diagram>
</mxfile>
